<svg width="146" height="18" viewBox="0 0 146 18" fill="none" xmlns="http://www.w3.org/2000/svg">
<path d="M-0.0079999 17.2109V0.410936H3.88V17.2109H-0.0079999ZM7.867 17.2109V0.410936H11.083L20.995 12.5069H19.435V0.410936H23.275V17.2109H20.083L10.147 5.11494H11.707V17.2109H7.867ZM27.2498 17.2109V0.410936H30.4658L40.3778 12.5069H38.8178V0.410936H42.6578V17.2109H39.4658L29.5298 5.11494H31.0898V17.2109H27.2498ZM54.7926 17.4989C53.4646 17.4989 52.2326 17.2829 51.0966 16.8509C49.9766 16.4189 49.0006 15.8109 48.1686 15.0269C47.3526 14.2429 46.7126 13.3229 46.2486 12.2669C45.8006 11.2109 45.5766 10.0589 45.5766 8.81094C45.5766 7.56294 45.8006 6.41094 46.2486 5.35494C46.7126 4.29894 47.3606 3.37894 48.1926 2.59494C49.0246 1.81094 50.0006 1.20294 51.1206 0.770936C52.2406 0.338937 53.4566 0.122937 54.7686 0.122937C56.0966 0.122937 57.3126 0.338937 58.4166 0.770936C59.5366 1.20294 60.5046 1.81094 61.3206 2.59494C62.1526 3.37894 62.8006 4.29894 63.2646 5.35494C63.7286 6.39494 63.9606 7.54694 63.9606 8.81094C63.9606 10.0589 63.7286 11.2189 63.2646 12.2909C62.8006 13.3469 62.1526 14.2669 61.3206 15.0509C60.5046 15.8189 59.5366 16.4189 58.4166 16.8509C57.3126 17.2829 56.1046 17.4989 54.7926 17.4989ZM54.7686 14.1869C55.5206 14.1869 56.2086 14.0589 56.8326 13.8029C57.4726 13.5469 58.0326 13.1789 58.5126 12.6989C58.9926 12.2189 59.3606 11.6509 59.6166 10.9949C59.8886 10.3389 60.0246 9.61094 60.0246 8.81094C60.0246 8.01094 59.8886 7.28294 59.6166 6.62694C59.3606 5.97094 58.9926 5.40294 58.5126 4.92294C58.0486 4.44294 57.4966 4.07494 56.8566 3.81894C56.2166 3.56294 55.5206 3.43494 54.7686 3.43494C54.0166 3.43494 53.3206 3.56294 52.6806 3.81894C52.0566 4.07494 51.5046 4.44294 51.0246 4.92294C50.5446 5.40294 50.1686 5.97094 49.8966 6.62694C49.6406 7.28294 49.5126 8.01094 49.5126 8.81094C49.5126 9.59494 49.6406 10.3229 49.8966 10.9949C50.1686 11.6509 50.5366 12.2189 51.0006 12.6989C51.4806 13.1789 52.0406 13.5469 52.6806 13.8029C53.3206 14.0589 54.0166 14.1869 54.7686 14.1869ZM66.8826 17.2109V0.410936H70.0986L77.2506 12.2669H75.5466L82.5786 0.410936H85.7706L85.8186 17.2109H82.1706L82.1466 6.00294H82.8186L77.2026 15.4349H75.4506L69.7146 6.00294H70.5306V17.2109H66.8826ZM87.5965 17.2109L95.0845 0.410936H98.9245L106.437 17.2109H102.357L96.2125 2.37894H97.7485L91.5805 17.2109H87.5965ZM91.3405 13.6109L92.3725 10.6589H101.013L102.069 13.6109H91.3405Z" fill="white"/>
<path d="M109.332 17.4029C108.692 17.4029 108.14 17.1869 107.676 16.7549C107.228 16.3069 107.004 15.7389 107.004 15.0509C107.004 14.3629 107.228 13.8109 107.676 13.3949C108.14 12.9629 108.692 12.7469 109.332 12.7469C109.988 12.7469 110.54 12.9629 110.988 13.3949C111.436 13.8109 111.66 14.3629 111.66 15.0509C111.66 15.7389 111.436 16.3069 110.988 16.7549C110.54 17.1869 109.988 17.4029 109.332 17.4029ZM118.587 17.2109L111.339 0.410936H115.539L121.875 15.2909H119.403L125.835 0.410936H129.699L122.427 17.2109H118.587ZM138.954 17.4989C137.658 17.4989 136.45 17.2909 135.33 16.8749C134.226 16.4429 133.266 15.8349 132.45 15.0509C131.634 14.2669 130.994 13.3469 130.53 12.2909C130.082 11.2349 129.858 10.0749 129.858 8.81094C129.858 7.54694 130.082 6.38694 130.53 5.33094C130.994 4.27494 131.634 3.35494 132.45 2.57094C133.282 1.78694 134.25 1.18694 135.354 0.770936C136.458 0.338937 137.666 0.122937 138.978 0.122937C140.434 0.122937 141.746 0.378937 142.914 0.890937C144.098 1.38694 145.09 2.12294 145.89 3.09894L143.394 5.40294C142.818 4.74694 142.178 4.25894 141.474 3.93894C140.77 3.60294 140.002 3.43494 139.17 3.43494C138.386 3.43494 137.666 3.56294 137.01 3.81894C136.354 4.07494 135.786 4.44294 135.306 4.92294C134.826 5.40294 134.45 5.97094 134.178 6.62694C133.922 7.28294 133.794 8.01094 133.794 8.81094C133.794 9.61094 133.922 10.3389 134.178 10.9949C134.45 11.6509 134.826 12.2189 135.306 12.6989C135.786 13.1789 136.354 13.5469 137.01 13.8029C137.666 14.0589 138.386 14.1869 139.17 14.1869C140.002 14.1869 140.77 14.0269 141.474 13.7069C142.178 13.3709 142.818 12.8669 143.394 12.1949L145.89 14.4989C145.09 15.4749 144.098 16.2189 142.914 16.7309C141.746 17.2429 140.426 17.4989 138.954 17.4989Z" fill="#00B1E9"/>
</svg>
